<?xml version="1.0" ?><!DOCTYPE svg  PUBLIC '-//W3C//DTD SVG 1.1//EN'  'http://www.w3.org/Graphics/SVG/1.1/DTD/svg11.dtd'><svg height="8.4666mm" style="shape-rendering:geometricPrecision; text-rendering:geometricPrecision; image-rendering:optimizeQuality; fill-rule:evenodd; clip-rule:evenodd" version="1.1" viewBox="0 0 846.66 846.66" width="8.4666mm" xml:space="preserve" xmlns="http://www.w3.org/2000/svg" xmlns:xlink="http://www.w3.org/1999/xlink"><defs><style type="text/css">
   <![CDATA[
    .fil0 {fill:black;fill-rule:nonzero}
   ]]>
  </style></defs><g id="Layer_x0020_1"><path class="fil0" d="M326.24 156.33l418.34 0c51.19,0 92.99,41.8 92.99,92.99l0 460.46c0,51.19 -41.8,92.98 -92.99,92.98l-642.5 0c-51.19,0 -92.99,-41.79 -92.99,-92.98l0 -460.46c0,-51.19 41.8,-92.99 92.99,-92.99l19.45 0 0 -91.73c0,-11.43 9.27,-20.7 20.7,-20.7l163.3 0c11.44,0 20.71,9.27 20.71,20.7l0 91.73zm88.89 537.35c-27.23,0 -27.23,-41.41 0,-41.41l34.13 0c27.24,0 27.24,41.41 0,41.41l-34.13 0zm244.62 0c-27.24,0 -27.24,-41.41 0,-41.41l34.12 0c27.24,0 27.24,41.41 0,41.41l-34.12 0zm-122.31 0c-27.24,0 -27.24,-41.41 0,-41.41l34.13 0c27.23,0 27.23,41.41 0,41.41l-34.13 0zm-122.31 -99.95c-27.23,0 -27.23,-41.41 0,-41.41l34.13 0c27.24,0 27.24,41.41 0,41.41l-34.13 0zm244.62 0c-27.24,0 -27.24,-41.41 0,-41.41l34.12 0c27.24,0 27.24,41.41 0,41.41l-34.12 0zm-122.31 0c-27.24,0 -27.24,-41.41 0,-41.41l34.13 0c27.23,0 27.23,41.41 0,41.41l-34.13 0zm-122.31 -99.95c-27.23,0 -27.23,-41.41 0,-41.41l34.13 0c27.24,0 27.24,41.41 0,41.41l-34.13 0zm244.62 0c-27.24,0 -27.24,-41.41 0,-41.41l34.12 0c27.24,0 27.24,41.41 0,41.41l-34.12 0zm-122.31 0c-27.24,0 -27.24,-41.41 0,-41.41l34.13 0c27.23,0 27.23,41.41 0,41.41l-34.13 0zm-114.11 -228.36l262.35 0c11.43,0 20.7,9.27 20.7,20.7l0 87.01c0,11.43 -9.27,20.7 -20.7,20.7l-262.35 0c-11.44,0 -20.71,-9.27 -20.71,-20.7l0 -87.01c0,-11.43 9.27,-20.7 20.71,-20.7zm241.64 41.41l-220.94 0 0 45.59 220.94 0 0 -45.59zm-543.44 -109.08l-19.45 0c-28.32,0 -51.58,23.25 -51.58,51.57l0 460.46c0,28.32 23.26,51.57 51.58,51.57l642.5 0c28.32,0 51.58,-23.25 51.58,-51.57l0 -460.46c0,-28.32 -23.26,-51.57 -51.58,-51.57l-418.34 0 0 399.59c0,11.44 -9.27,20.71 -20.71,20.71l-163.3 0c-11.43,0 -20.7,-9.27 -20.7,-20.71l0 -399.59zm163.3 -112.44l-121.89 0 0 491.33 121.89 0 0 -491.33z"/></g></svg>